<?xml version="1.0" encoding="utf-8"?>
<!-- Generator: Adobe Illustrator 16.0.0, SVG Export Plug-In . SVG Version: 6.00 Build 0)  -->
<!DOCTYPE svg PUBLIC "-//W3C//DTD SVG 1.1//EN" "http://www.w3.org/Graphics/SVG/1.1/DTD/svg11.dtd">
<svg version="1.1" id="Layer_1" xmlns="http://www.w3.org/2000/svg" xmlns:xlink="http://www.w3.org/1999/xlink" x="0px" y="0px"
	 width="500px" height="100px" viewBox="0 0 500 100" enable-background="new 0 0 500 100" xml:space="preserve">
<g>
	<path fill="#FFFFFF" d="M36.781,8.967H12.877v84h17v-32h6.904c8.43,0,15.096-5.744,15.096-17.447V24.772
		C51.877,13.07,45.211,8.967,36.781,8.967z M36.877,44.149c0,2.642-0.601,4.817-2.363,4.817h-4.637v-26h4.637
		c1.762,0,2.363-0.335,2.363,2.435V44.149z"/>
	<path fill="#FFFFFF" d="M76.413,8.967l-12.206,84h14.596l1.383-14h9.564l1.132,14h16.23l-12.079-84H76.413z M81.949,65.967
		l3.649-32.588l2.768,32.588H81.949z"/>
	<path fill="#FFFFFF" d="M146.114,8.967h-23.237v84h16v-32h7.237c8.432,0,14.763-5.744,14.763-17.447V24.772
		C160.877,13.07,154.546,8.967,146.114,8.967z M145.877,44.149c0,2.642-0.266,4.817-2.028,4.817h-4.972v-26h4.972
		c1.762,0,2.028-0.335,2.028,2.435V44.149z"/>
	<path fill="#FFFFFF" d="M270.878,61.638c0-4.15-3.141-8.053-7.295-10.317c4.154-2.39,6.295-6.165,6.295-10.317V24.268
		c0-11.197-6.756-15.301-14.68-15.301h-23.321v84h16v-34h4.928c2.268,0,2.072,1.034,2.072,3.176v16.733
		c0,5.287,2.711,14.091,5.225,14.091h12.775v-1.508c-1-4.025-2-8.303-2-13.589V61.638z M254.878,41.508
		c0,2.768-0.059,4.459-1.82,4.459h-5.18v-23h5.18c1.762,0,1.82-0.335,1.82,2.435V41.508z"/>
	<polygon fill="#FFFFFF" points="305.878,8.967 289.878,8.967 289.878,92.967 322.878,92.967 322.878,78.967 305.878,78.967 	"/>
	<path fill="#FFFFFF" d="M407.56,25.275c0-3.272,2.02-4.908,4.41-4.908s3.908,1.762,3.908,4.782v8.817h14v-7.812
		c0-11.827-7.068-19.629-17.891-19.629c-13.592,0-20.146,9.814-20.146,21.265c0,10.443,7.734,20.511,14.023,27.555
		c5.664,7.046,9.719,12.207,9.719,19.001c0,3.523-1.951,5.536-5.227,5.536c-3.396,0-5.479-2.266-5.479-5.662v-7.254h-14v6.752
		c0,12.456,7.771,19.756,20.232,19.756c11.197,0,19.926-7.931,19.926-21.141c0-10.818-6.959-19.629-13.752-27.808
		C411.499,36.852,407.56,33.328,407.56,25.275z"/>
	<path fill="#FFFFFF" d="M473.485,44.526c-5.787-7.675-9.816-11.198-9.816-19.251c0-3.272,1.965-4.908,4.355-4.908
		s3.854,1.762,3.854,4.782v8.817h14v-7.812c0-11.827-7.014-19.629-17.836-19.629c-13.588,0-20.115,9.814-20.115,21.265
		c0,10.443,7.748,20.511,14.037,27.555c5.662,7.046,9.727,12.207,9.727,19.001c0,3.523-2.01,5.536-5.279,5.536
		c-3.4,0-5.533-2.266-5.533-5.662v-7.254h-14v6.752c0,12.456,7.832,19.756,20.287,19.756c11.201,0,19.957-7.931,19.957-21.141
		C487.122,61.516,480.28,52.705,473.485,44.526z"/>
	<rect x="179.877" y="22.717" fill="#FFFFFF" width="34" height="21"/>
	<rect x="179.877" y="57.717" fill="#FFFFFF" width="34" height="21"/>
	<rect x="339.878" y="22.717" fill="#FFFFFF" width="34" height="21"/>
	<rect x="339.878" y="57.717" fill="#FFFFFF" width="34" height="21"/>
</g>
</svg>
